# xmcd
#
# Track frame offsets:
#	150
#	11742
#	27270
#	47120
#	62102
#	74060
#	89990
#	104215
#	117367
#	130312
#	141577
#	154197
#
# Disc length: 2271 seconds
#
# Revision: 1
# Processed by: cddbd v1.5.2PL0 Copyright (c) Steve Scherf et al.
# Submitted via: audiograbber 1.83.01
#
DISCID=c308dd0c
DTITLE=Suzanne Prentice - Top Of The World
DYEAR=1994
DGENRE=Country
TTITLE0=Single Girl
TTITLE1=With Pen In Hand
TTITLE2=Make Believe
TTITLE3=All I Ever Need Is You
TTITLE4=Misty Blue
TTITLE5=Evergreen
TTITLE6=Here We Go Again
TTITLE7=True Love Ways
TTITLE8=Smile
TTITLE9=Walking After Midnight
TTITLE10=Old Devil Called Love
TTITLE11=Unforgettable
EXTD=Released on Cd by Edge Music 4509964602
EXTT0=
EXTT1=
EXTT2=
EXTT3=
EXTT4=
EXTT5=
EXTT6=
EXTT7=
EXTT8=
EXTT9=
EXTT10=
EXTT11=
PLAYORDER=
